<svg width="168" height="339" viewBox="0 0 168 339" fill="none" xmlns="http://www.w3.org/2000/svg">
<path d="M130.625 315.562C130.625 321.422 129.551 325.963 127.402 329.186C125.254 332.311 122.422 334.605 118.906 336.07C115.391 337.535 111.387 338.414 106.895 338.707C102.402 338.902 97.8125 339 93.125 339H74.375V85.875H93.125C98.9844 85.875 104.209 86.0215 108.799 86.3145C113.486 86.5098 117.441 87.3398 120.664 88.8047C123.887 90.2695 126.328 92.6133 127.988 95.8359C129.746 98.9609 130.625 103.453 130.625 109.312V189C130.625 193.688 129.453 197.301 127.109 199.84C124.766 202.379 121.25 204.283 116.562 205.553C121.25 206.627 124.766 208.434 127.109 210.973C129.453 213.512 130.625 217.125 130.625 221.812V315.562ZM93.125 198.375H107.188C108.359 198.375 109.238 198.131 109.824 197.643C110.508 197.057 110.996 196.324 111.289 195.445C111.582 194.566 111.729 193.59 111.729 192.516C111.826 191.344 111.875 190.172 111.875 189V109.312C111.875 106.969 111.533 105.162 110.85 103.893C110.264 102.623 109.238 101.695 107.773 101.109C106.309 100.523 104.355 100.182 101.914 100.084C99.5703 99.9863 96.6406 99.9375 93.125 99.9375V198.375ZM111.875 221.812C111.875 220.641 111.826 219.518 111.729 218.443C111.729 217.271 111.582 216.246 111.289 215.367C110.996 214.488 110.508 213.805 109.824 213.316C109.238 212.73 108.359 212.438 107.188 212.438H93.125V324.938C96.6406 324.938 99.5703 324.889 101.914 324.791C104.355 324.693 106.309 324.352 107.773 323.766C109.238 323.18 110.264 322.252 110.85 320.982C111.533 319.713 111.875 317.906 111.875 315.562V221.812Z" fill="url(#paint0_linear_20_3)"/>
<path d="M74.875 200.33C74.875 189.979 74.3379 181.092 73.2637 173.67C72.1895 166.248 70.7734 159.803 69.0156 154.334C67.2578 148.768 65.2559 143.934 63.0098 139.832C60.7637 135.73 58.4688 131.873 56.125 128.26C53.7812 124.646 51.4863 121.033 49.2402 117.42C46.9941 113.807 44.9922 109.705 43.2344 105.115C41.4766 100.525 40.0605 95.252 38.9863 89.2949C37.9121 83.2402 37.375 76.0137 37.375 67.6152V32.3125C37.375 29.9688 37.7168 27.332 38.4004 24.4023C39.1816 21.375 40.5977 18.5918 42.6484 16.0527C44.6992 13.416 47.5312 11.2188 51.1445 9.46094C54.8555 7.60547 59.6406 6.67773 65.5 6.67773C71.3594 6.67773 76.0957 7.60547 79.709 9.46094C83.4199 11.2188 86.3008 13.416 88.3516 16.0527C90.4023 18.5918 91.7695 21.375 92.4531 24.4023C93.2344 27.332 93.625 29.9688 93.625 32.3125V97.9375H74.875V32.3125C74.875 29.9688 74.582 28.0645 73.9961 26.5996C73.5078 25.0371 72.8242 23.8652 71.9453 23.084C71.0664 22.2051 70.041 21.6191 68.8691 21.3262C67.7949 20.9355 66.6719 20.7402 65.5 20.7402C64.3281 20.7402 63.1562 20.9355 61.9844 21.3262C60.9102 21.6191 59.9336 22.2051 59.0547 23.084C58.1758 23.8652 57.4434 25.0371 56.8574 26.5996C56.3691 28.0645 56.125 29.9688 56.125 32.3125V60.877C56.125 71.9121 57.0527 81.1406 58.9082 88.5625C60.7637 95.9844 63.0586 102.479 65.793 108.045C68.625 113.514 71.6523 118.494 74.875 122.986C78.0977 127.479 81.0762 132.361 83.8105 137.635C86.6426 142.811 88.9863 148.865 90.8418 155.799C92.6973 162.635 93.625 171.18 93.625 181.434V238.562C93.625 239.734 93.4785 241.883 93.1855 245.008C92.8926 248.035 91.8672 251.16 90.1094 254.383C88.3516 257.605 85.5684 260.438 81.7598 262.879C77.9512 265.418 72.5312 266.688 65.5 266.688C58.4688 266.688 53.0488 265.418 49.2402 262.879C45.4316 260.438 42.6484 257.605 40.8906 254.383C39.1328 251.16 38.1074 248.035 37.8145 245.008C37.5215 241.883 37.375 239.734 37.375 238.562V154.188H56.125V238.562C56.125 239.734 56.1738 241.15 56.2715 242.811C56.3691 244.373 56.7109 245.887 57.2969 247.352C57.8828 248.816 58.8105 250.086 60.0801 251.16C61.3496 252.137 63.1562 252.625 65.5 252.625C67.8438 252.625 69.6504 252.137 70.9199 251.16C72.1895 250.086 73.1172 248.816 73.7031 247.352C74.2891 245.887 74.6309 244.373 74.7285 242.811C74.8262 241.15 74.875 239.734 74.875 238.562V200.33Z" fill="url(#paint1_linear_20_3)"/>
<defs>
<linearGradient id="paint0_linear_20_3" x1="102.5" y1="84" x2="102.5" y2="325" gradientUnits="userSpaceOnUse">
<stop stop-color="#0D0D59" stop-opacity="0.85"/>
<stop offset="0.505208" stop-color="#0D0D59"/>
<stop offset="1" stop-color="#0D0D59" stop-opacity="0.85"/>
</linearGradient>
<linearGradient id="paint1_linear_20_3" x1="65.5" y1="0" x2="65.5" y2="255" gradientUnits="userSpaceOnUse">
<stop stop-color="#0D0D59" stop-opacity="0.85"/>
<stop offset="0.505208" stop-color="#0D0D59"/>
<stop offset="1" stop-color="#0D0D59" stop-opacity="0.85"/>
</linearGradient>
</defs>
</svg>
