<svg width="495" height="131" viewBox="0 0 495 131" fill="none" xmlns="http://www.w3.org/2000/svg">
<path d="M154.688 97.165C154.688 91.9893 154.419 87.5459 153.882 83.835C153.345 80.124 152.637 76.9014 151.758 74.167C150.879 71.3838 149.878 68.9668 148.755 66.916C147.632 64.8652 146.484 62.9365 145.312 61.1299C144.141 59.3232 142.993 57.5166 141.87 55.71C140.747 53.9033 139.746 51.8525 138.867 49.5576C137.988 47.2627 137.28 44.626 136.743 41.6475C136.206 38.6201 135.938 35.0068 135.938 30.8076V13.1562C135.938 11.9844 136.108 10.666 136.45 9.20117C136.841 7.6875 137.549 6.2959 138.574 5.02637C139.6 3.70801 141.016 2.60938 142.822 1.73047C144.678 0.802734 147.07 0.338867 150 0.338867C152.93 0.338867 155.298 0.802734 157.104 1.73047C158.96 2.60938 160.4 3.70801 161.426 5.02637C162.451 6.2959 163.135 7.6875 163.477 9.20117C163.867 10.666 164.062 11.9844 164.062 13.1562V45.9688H154.688V13.1562C154.688 11.9844 154.541 11.0322 154.248 10.2998C154.004 9.51855 153.662 8.93262 153.223 8.54199C152.783 8.10254 152.271 7.80957 151.685 7.66309C151.147 7.46777 150.586 7.37012 150 7.37012C149.414 7.37012 148.828 7.46777 148.242 7.66309C147.705 7.80957 147.217 8.10254 146.777 8.54199C146.338 8.93262 145.972 9.51855 145.679 10.2998C145.435 11.0322 145.312 11.9844 145.312 13.1562V27.4385C145.312 32.9561 145.776 37.5703 146.704 41.2812C147.632 44.9922 148.779 48.2393 150.146 51.0225C151.562 53.7568 153.076 56.2471 154.688 58.4932C156.299 60.7393 157.788 63.1807 159.155 65.8174C160.571 68.4053 161.743 71.4326 162.671 74.8994C163.599 78.3174 164.062 82.5898 164.062 87.7168V116.281C164.062 116.867 163.989 117.941 163.843 119.504C163.696 121.018 163.184 122.58 162.305 124.191C161.426 125.803 160.034 127.219 158.13 128.439C156.226 129.709 153.516 130.344 150 130.344C146.484 130.344 143.774 129.709 141.87 128.439C139.966 127.219 138.574 125.803 137.695 124.191C136.816 122.58 136.304 121.018 136.157 119.504C136.011 117.941 135.938 116.867 135.938 116.281V74.0938H145.312V116.281C145.312 116.867 145.337 117.575 145.386 118.405C145.435 119.187 145.605 119.943 145.898 120.676C146.191 121.408 146.655 122.043 147.29 122.58C147.925 123.068 148.828 123.312 150 123.312C151.172 123.312 152.075 123.068 152.71 122.58C153.345 122.043 153.809 121.408 154.102 120.676C154.395 119.943 154.565 119.187 154.614 118.405C154.663 117.575 154.688 116.867 154.688 116.281V97.165ZM201.188 8.46875H189.469V57.6875H198.844V64.7188H189.469V120.969H201.188V128H180.094V1.4375H201.188V8.46875ZM226.594 1.4375V120.969H235.969V128H217.219V1.4375H226.594ZM275.438 8.46875H263.719V57.6875H273.094V64.7188H263.719V120.969H275.438V128H254.344V1.4375H275.438V8.46875ZM319.594 128H310.219L298.5 34.25V128H291.469V1.4375H300.844L312.562 95.1875V1.4375H319.594V128ZM359.062 8.46875H347.344V57.6875H356.719V64.7188H347.344V120.969H359.062V128H337.969V1.4375H359.062V8.46875Z" fill="url(#paint0_diamond_20_10)"/>
<defs>
<radialGradient id="paint0_diamond_20_10" cx="0" cy="0" r="1" gradientUnits="userSpaceOnUse" gradientTransform="translate(-124 -234) rotate(37.7513) scale(975.115 4875.58)">
<stop stop-color="#0D0D59" stop-opacity="0.12"/>
<stop offset="0.505208" stop-color="#0D0D59"/>
<stop offset="1" stop-color="#0D0D59" stop-opacity="0"/>
</radialGradient>
</defs>
</svg>
